<svg width="24" height="24" viewBox="0 0 24 24" fill="none" xmlns="http://www.w3.org/2000/svg">
<path d="M10 4C8.93913 4 7.92172 4.42143 7.17157 5.17157C6.42143 5.92172 6 6.93913 6 8C6 9.06087 6.42143 10.0783 7.17157 10.8284C7.92172 11.5786 8.93913 12 10 12C11.0609 12 12.0783 11.5786 12.8284 10.8284C13.5786 10.0783 14 9.06087 14 8C14 6.93913 13.5786 5.92172 12.8284 5.17157C12.0783 4.42143 11.0609 4 10 4ZM10 14C5.58 14 2 15.79 2 18V20H11.68C11.2337 19.0628 11.0014 18.038 11 17C11.002 15.9953 11.2203 15.0028 11.64 14.09C11.11 14.03 10.56 14 10 14Z" fill="white"/>
<path d="M18 12C15.24 12 13 14.24 13 17C13 19.76 15.24 22 18 22H20.5V21H18C15.83 21 14 19.17 14 17C14 14.83 15.83 13 18 13C20.17 13 22 14.83 22 17V17.715C22 18.11 21.645 18.5 21.25 18.5C20.855 18.5 20.5 18.11 20.5 17.715V17C20.5 15.62 19.38 14.5 18 14.5C16.62 14.5 15.5 15.62 15.5 17C15.5 18.38 16.62 19.5 18 19.5C18.69 19.5 19.32 19.22 19.77 18.765C20.095 19.21 20.655 19.5 21.25 19.5C22.235 19.5 23 18.7 23 17.715V17C23 14.24 20.76 12 18 12ZM18 18.5C17.17 18.5 16.5 17.83 16.5 17C16.5 16.17 17.17 15.5 18 15.5C18.83 15.5 19.5 16.17 19.5 17C19.5 17.83 18.83 18.5 18 18.5Z" fill="white"/>
</svg>
