<svg width="24" height="24" viewBox="0 0 24 24" fill="none" xmlns="http://www.w3.org/2000/svg">
<g clip-path="url(#clip0_4029_10908)">
<path d="M8.14965 8.24949C7.51182 9.37499 6.79135 10.2871 6.05201 11.0264C3.3168 13.7616 0.325551 14.1256 0.325551 14.1256C0.43786 14.2379 9.03424 22.8343 9.03424 22.8343C10.6261 22.6716 12.6609 21.338 14.4946 19.5044C15.8946 18.1043 17.1774 16.4127 18.0552 14.73C18.9483 13.0183 19.9 11.8035 20.7556 10.9479C22.2948 9.40866 23.5201 9.03591 23.5201 9.03591L14.7541 0.269924C13.4056 1.06299 12.5615 1.63845 11.8778 2.32215C10.7265 3.4734 10.03 4.93173 8.14965 8.24949ZM21.4198 8.70331C20.9505 9.02684 20.4107 9.45937 19.8389 10.0312C18.7433 11.1268 17.7616 12.499 16.9216 14.109C16.1233 15.6389 14.936 17.2296 13.5779 18.5877C12.1119 20.0536 10.579 21.1007 9.41851 21.4508L2.7298 14.7621C3.94083 14.2734 5.49262 13.4192 6.96868 11.9432C7.84769 11.0642 8.61971 10.0428 9.26277 8.90746C9.61768 8.28213 9.93012 7.7222 10.2116 7.21793C11.3878 5.11223 11.9778 4.0556 12.7941 3.23931C13.2259 2.80754 13.7505 2.40762 14.594 1.8785L21.4198 8.70331Z" fill="#8B8B8B"/>
<path d="M12.3941 11.4122L11.2326 10.2507C11.5012 10.1489 11.7738 10.1926 12.0517 10.3822L12.678 9.55974C12.3315 9.31222 11.9796 9.18928 11.6232 9.19178C11.266 9.19426 10.9174 9.32832 10.5762 9.59434L10.2819 9.30007L9.8665 9.7155L10.1608 10.0098C9.86588 10.3716 9.73035 10.762 9.75327 11.1809C9.77665 11.5994 9.95035 11.9711 10.2753 12.296C10.5962 12.6169 10.9564 12.8021 11.3565 12.8521C11.7561 12.9026 12.1978 12.7955 12.6835 12.5325L13.9284 13.7774C13.7736 13.8286 13.597 13.8393 13.398 13.8083C13.1989 13.7772 13.0049 13.698 12.8158 13.5699L12.1515 14.4002C12.599 14.7337 13.0328 14.9041 13.4527 14.9113C13.8732 14.919 14.2688 14.7781 14.6411 14.4893L15.1815 15.0296L15.5969 14.6142L15.0415 14.0587C15.3586 13.6307 15.499 13.1896 15.4624 12.7349C15.4258 12.2802 15.228 11.8738 14.8696 11.5154C14.5487 11.1945 14.203 11.015 13.8315 10.9758C13.4609 10.9375 12.9816 11.0831 12.3941 11.4122ZM11.837 11.685C11.6574 11.7538 11.4917 11.7737 11.3408 11.7448C11.1896 11.7155 11.0619 11.6489 10.9569 11.5439C10.8423 11.4293 10.7701 11.2908 10.7419 11.1291C10.7142 10.9671 10.7365 10.81 10.8094 10.6574L11.837 11.685ZM14.528 12.8469C14.5483 13.0466 14.5004 13.2321 14.3851 13.4032L13.2264 12.2445C13.4501 12.1244 13.6472 12.074 13.819 12.0947C13.9909 12.1154 14.1425 12.1919 14.2755 12.3248C14.4231 12.4734 14.5077 12.6472 14.528 12.8469Z" fill="#8B8B8B"/>
</g>
<defs>
<clipPath id="clip0_4029_10908">
<rect width="24" height="24" fill="white"/>
</clipPath>
</defs>
</svg>
