<svg width="16" height="16" viewBox="0 0 16 16" fill="none" xmlns="http://www.w3.org/2000/svg">
<path d="M8 3.63636V2L5.75 4.18182L8 6.36364V4.72727C9.86188 4.72727 11.375 6.19455 11.375 8C11.375 8.55091 11.2344 9.07455 10.9812 9.52727L11.8025 10.3236C12.2413 9.65273 12.5 8.85636 12.5 8C12.5 5.58909 10.4862 3.63636 8 3.63636ZM8 11.2727C6.13812 11.2727 4.625 9.80545 4.625 8C4.625 7.44909 4.76562 6.92545 5.01875 6.47273L4.1975 5.67636C3.75875 6.34727 3.5 7.14364 3.5 8C3.5 10.4109 5.51375 12.3636 8 12.3636V14L10.25 11.8182L8 9.63636V11.2727Z" fill="white"/>
</svg>
